<?xml version="1.0" standalone="no"?>
<!DOCTYPE svg PUBLIC "-//W3C//DTD SVG 20010904//EN"
 "http://www.w3.org/TR/2001/REC-SVG-20010904/DTD/svg10.dtd">
<svg version="1.0" xmlns="http://www.w3.org/2000/svg"
 width="758.000000pt" height="663.000000pt" viewBox="0 0 758.000000 663.000000"
 preserveAspectRatio="xMidYMid meet">

<g transform="translate(0.000000,663.000000) scale(0.100000,-0.100000)"
fill="#000000" stroke="none">
<path d="M0 3315 l0 -3315 3790 0 3790 0 0 3315 0 3315 -3790 0 -3790 0 0
-3315z m7350 2240 l0 -955 -2107 -3 c-1940 -3 -2114 -4 -2183 -20 -257 -58
-442 -156 -606 -321 -136 -136 -221 -275 -283 -463 -54 -162 -66 -246 -66
-483 0 -238 14 -331 77 -509 140 -396 440 -658 863 -753 78 -18 135 -21 433
-25 l342 -5 0 -955 0 -955 -402 5 c-484 6 -612 20 -938 102 -977 247 -1774
921 -2158 1825 -231 545 -307 1170 -217 1783 131 887 654 1689 1414 2171 463
293 996 467 1561 509 25 2 996 4 2158 5 l2112 2 0 -955z m-30 -1532 c0 -5 0
-332 0 -728 l1 -720 -631 -3 -630 -2 0 -1220 0 -1220 -845 0 -845 0 0 1219 0
1220 -522 3 c-584 4 -572 3 -723 78 -186 91 -328 266 -382 470 -21 80 -24 271
-4 350 19 78 92 225 146 293 71 89 187 174 300 219 120 48 47 46 2153 47 1090
1 1982 -2 1982 -6z"/>
</g>
</svg>
